<?xml version="1.0" standalone="no"?>
<!DOCTYPE svg PUBLIC "-//W3C//DTD SVG 20010904//EN"
 "http://www.w3.org/TR/2001/REC-SVG-20010904/DTD/svg10.dtd">
<svg version="1.0" xmlns="http://www.w3.org/2000/svg"
 width="512.000000pt" height="512.000000pt" viewBox="0 0 512.000000 512.000000"
 preserveAspectRatio="xMidYMid meet">

<g transform="translate(0.000000,512.000000) scale(0.100000,-0.100000)"
fill="#ebeaea" stroke="none">
<path d="M2488 5099 c-46 -24 -78 -82 -78 -142 0 -183 -148 -428 -445 -735
-109 -113 -689 -666 -772 -736 -60 -50 -342 -357 -438 -476 -224 -278 -359
-538 -422 -810 -26 -115 -24 -412 5 -546 62 -287 161 -476 351 -665 58 -58
138 -126 176 -151 216 -140 445 -211 725 -224 290 -14 545 47 753 179 32 21
60 37 62 37 3 0 5 -160 5 -355 0 -337 1 -358 20 -395 23 -45 80 -80 130 -80
50 0 107 35 130 80 19 37 20 58 20 395 0 195 2 355 5 355 2 0 30 -16 62 -37
205 -131 460 -192 748 -180 380 16 694 151 933 400 168 177 266 370 324 641
29 134 31 431 5 546 -63 272 -208 549 -434 825 -100 123 -366 410 -436 471
-112 97 -644 604 -757 720 -301 310 -450 556 -450 741 0 123 -117 198 -222
142z m-78 -1356 l0 -518 -102 102 c-109 107 -148 133 -198 133 -76 0 -150 -74
-150 -150 0 -56 37 -103 244 -310 l206 -205 0 -235 0 -235 -252 252 c-139 138
-267 258 -285 267 -69 34 -158 5 -193 -64 -25 -49 -25 -90 -1 -138 11 -20 180
-197 375 -392 l356 -355 0 -235 0 -235 -402 402 c-222 220 -417 408 -435 417
-122 61 -258 -75 -197 -197 9 -18 217 -234 462 -480 l447 -448 -30 -24 c-54
-44 -189 -115 -265 -139 -319 -101 -753 -29 -1008 168 -162 125 -265 280 -326
487 -81 283 -55 562 81 832 148 296 362 543 953 1096 341 319 525 502 635 630
43 50 79 91 81 91 2 0 4 -233 4 -517z m479 323 c64 -71 144 -154 178 -185 209
-191 680 -640 798 -762 478 -491 660 -837 642 -1224 -19 -410 -203 -711 -532
-870 -257 -125 -623 -151 -869 -62 -63 23 -189 93 -246 137 l-25 19 447 448
c245 246 453 462 462 480 61 122 -75 258 -197 197 -18 -9 -213 -197 -434 -417
l-403 -402 0 235 0 235 356 355 c195 195 364 372 375 392 24 48 24 89 -1 138
-35 69 -124 98 -193 64 -18 -9 -146 -129 -284 -267 l-253 -252 0 235 0 235
206 205 c207 207 244 254 244 310 0 76 -74 150 -150 150 -50 0 -89 -26 -197
-133 l-103 -102 0 520 1 520 31 -35 c17 -19 83 -93 147 -164z"/>
</g>
</svg>
